<svg xmlns="http://www.w3.org/2000/svg" width="375" viewBox="0 0 375 375" height="375" version="1.0"><path fill="#FFF" d="M-37.5 -37.5H412.5V412.5H-37.5z"/><path fill="#FFF" d="M-37.5 -37.5H412.5V412.5H-37.5z"/><path fill="#FFF" d="M-37.5 -37.5H412.5V412.5H-37.5z"/><path fill="#F2EFEB" d="M 187.5 0 C 83.945312 0 0 83.945312 0 187.5 C 0 291.054688 83.945312 375 187.5 375 C 291.054688 375 375 291.054688 375 187.5 C 375 83.945312 291.054688 0 187.5 0"/><g><g><g><path d="M 79.851562 5.769531 C 122.085938 5.769531 151.628906 -15 151.628906 -49.390625 C 151.628906 -76.160156 134.550781 -91.394531 97.164062 -97.625 L 73.851562 -102.007812 C 56.773438 -105.238281 49.390625 -110.777344 49.390625 -120.703125 C 49.390625 -132.472656 59.542969 -141.011719 75.699219 -141.011719 C 91.625 -141.011719 103.855469 -130.859375 105.933594 -114.933594 L 141.242188 -122.78125 C 137.089844 -151.398438 110.546875 -170.09375 76.160156 -170.09375 C 38.082031 -170.09375 10.617188 -149.320312 10.617188 -117.011719 C 10.617188 -91.160156 26.773438 -76.621094 63.003906 -69.699219 L 85.855469 -65.3125 C 105.238281 -61.390625 113.316406 -55.390625 113.316406 -45.234375 C 113.316406 -32.542969 101.085938 -23.539062 81.46875 -23.539062 C 59.542969 -23.539062 43.386719 -36.464844 41.082031 -56.082031 L 5.078125 -49.390625 C 8.769531 -13.847656 39.003906 5.769531 79.851562 5.769531 Z M 79.851562 5.769531" transform="translate(41.865 273.027)"/></g></g></g><g><g><g><path d="M 65.542969 5.308594 C 102.933594 5.308594 125.78125 -14.769531 125.78125 -49.15625 L 125.78125 -164.320312 L 86.316406 -164.320312 L 86.085938 -51.464844 C 86.085938 -35.3125 78.238281 -26.078125 64.621094 -26.078125 C 50.082031 -26.078125 40.15625 -36.234375 37.386719 -53.542969 L 3.460938 -42.234375 C 8.308594 -12.230469 30.234375 5.308594 65.542969 5.308594 Z M 65.542969 5.308594" transform="translate(196.954 273.027)"/></g></g></g></svg>